<?xml version="1.0" standalone="no"?><!DOCTYPE svg PUBLIC "-//W3C//DTD SVG 1.1//EN" "http://www.w3.org/Graphics/SVG/1.1/DTD/svg11.dtd"><svg t="1712631465116" class="icon" viewBox="0 0 1024 1024" version="1.1" xmlns="http://www.w3.org/2000/svg" p-id="13769" xmlns:xlink="http://www.w3.org/1999/xlink" width="16" height="16"><path d="M692.505053 970.454962l-0.39084-15.633588h2.970382l-7.191451-45.259237 116.704733 36.738932-99.429618 71.28916-7.816794-46.900763zM528.821389 9.145649C533.902305 7.816794 538.905053 6.018931 543.985969 4.53374l7.816794-2.110534 3.986565 15.086412q-7.425954 1.954198-14.773741 4.221069l-7.113282 2.26687zM484.187496 25.79542l14.695572-6.018931 7.425954-2.814046 5.471756 14.304733c-4.846412 1.797863-9.614656 3.673893-14.382901 5.628091l-7.035114 2.970382zM441.273297 46.900763c4.611908-2.579542 9.301985-5.080916 13.992061-7.816794l7.113283-3.517557 6.878778 14.070229c-4.611908 2.26687-9.145649 4.53374-13.679389 6.956947l-6.800611 3.673893z m203.236641 922.38168l1.094351-15.633588c5.080916 0 10.24 0.625344 15.633588 0.859847h7.816794v15.633588c-8.442137 0.234504-16.415267-0.078168-24.310229-0.859847zM401.016809 71.758168c4.377405-2.970382 8.754809-5.940763 13.288549-8.754809l6.722443-4.221069 8.207634 13.28855c-4.377405 2.735878-8.754809 5.471756-12.975878 8.285801l-6.409771 4.299237zM597.296503 963.810687l2.579542-15.633588q7.816794 1.328855 15.633588 2.345038l7.816794 0.938016-1.797863 15.633587c-8.520305-0.781679-16.415267-1.954198-24.232061-3.283053z m-234.503817-863.130382c4.064733-3.439389 8.207634-6.722443 12.350535-10.005496l6.253435-4.846412 9.45832 12.428702c-4.064733 3.126718-7.816794 6.253435-12.037862 9.458321l-5.940763 4.92458zM550.630244 953.648855l4.064732-15.086412 14.930077 3.830229 7.816794 1.641526-3.361222 15.633588c-8.051298-2.110534-15.789924-3.986565-23.450381-6.018931zM327.460778 133.276336c3.752061-3.830229 7.816794-7.816794 11.334351-11.178015l5.784428-5.471756 10.630839 11.490687c-3.752061 3.439389-7.816794 7.035115-11.099847 10.63084l-5.471756 5.471755z m178.535573 805.91145l5.549923-14.695572c4.768244 1.876031 9.614656 3.595725 14.461069 5.237252l7.269618 2.423206-4.768244 14.851908c-7.58229-2.423206-15.086412-5.080916-22.512366-7.816794zM296.037267 168.608244c3.361221-4.142901 6.722443-8.207634 10.161832-12.194198l5.237252-6.018931L322.84887 160.79145q-5.159084 5.70626-10.083665 11.725191l-4.846412 5.940764z m165.950534 751.506565l6.878779-14.070229c4.611908 2.26687 9.301985 4.455573 13.913893 6.566107l7.035114 3.126718-6.175267 14.461068c-7.269618-3.283053-14.539237-6.566107-21.652519-10.083664zM268.131312 207.223206q4.299237-6.722443 8.911145-13.132214l4.690077-6.487939 12.585038 9.223817c-2.970382 4.142901-5.940763 8.363969-8.832977 12.585038l-4.299237 6.409771z m152.271145 689.753893L428.375587 883.29771c4.299237 2.735878 8.754809 5.393588 13.210382 7.816794l6.644275 3.830229-7.816794 13.679389c-6.644275-3.517557-13.523053-7.504122-20.245496-11.647023z m-176.659542-648.793893c2.501374-4.690076 5.080916-9.380153 7.816794-13.992061l3.986565-6.800611 13.444886 7.816794c-2.579542 4.455573-5.080916 8.911145-7.816794 13.366718l-3.673893 6.80061z m137.184733 621.435115l9.458321-12.428703c4.064733 3.126718 8.207634 6.097099 12.428702 9.067481l6.253435 4.455573-8.832977 12.89771c-7.035115-4.299237-13.210382-8.911145-19.541985-13.757558zM223.262915 291.800916c2.032366-4.92458 4.064733-9.770992 6.253436-14.617405l3.283053-7.19145 14.226565 6.566107q-3.283053 7.035115-6.331603 14.070229l-2.970382 7.113282z m120.847634 547.175573l10.63084-11.490687c3.752061 3.517557 7.816794 6.878779 11.412519 10.24l5.862595 5.002748-10.083664 12.11603q-8.989313-7.58229-17.82229-15.711756zM207.316656 336.747481c1.563359-5.080916 3.126718-10.161832 4.846412-15.16458l2.579542-7.816794 14.773741 5.237252c-1.719695 4.846412-3.361221 9.692824-4.924581 14.617404l-2.26687 7.347787zM310.967343 805.129771l11.881527-10.24c3.439389 3.830229 6.878779 7.816794 10.396335 11.334351l5.393588 5.549924-11.178015 10.943511c-5.784427-5.70626-11.256183-11.490687-16.493435-17.587786zM195.982305 382.475725c1.016183-5.237252 2.110534-10.396336 3.283053-15.633588l1.876031-7.816793 15.16458 3.830229c-1.250687 4.92458-2.345038 9.927328-3.439389 15.008244l-1.563359 7.816794z m84.968549 385.524275l12.585039-9.145649c3.04855 4.142901 6.097099 7.816794 9.301984 12.272367l4.768245 6.018931-12.194199 9.770992c-5.002748-6.175267-9.84916-12.428702-14.461069-18.916641zM188.94719 429.923664c0.547176-5.237252 1.094351-10.552672 1.797863-15.633588l1.094351-7.816794 15.633588 2.266871c-0.703511 5.080916-1.407023 10.161832-2.032367 15.242748l-0.781679 7.816794z m65.739237 298.132519l13.444885-7.816794c2.65771 4.377405 5.31542 8.754809 7.816794 13.054046l4.142901 6.487939-13.054046 8.598473c-4.142901-6.722443-8.285802-13.601221-12.350534-20.323664zM186.602152 477.449771v-23.450382l15.633588 0.78168c0 5.080916-0.39084 10.24-0.547176 15.633587v7.816794z m45.962748 208.395725l14.148397-6.566107c2.188702 4.611908 4.455573 9.301985 6.722443 13.835726l3.517557 6.878778-13.835725 7.191451q-5.471756-10.552672-10.552672-21.339848zM188.869022 525.132214c-0.547176-5.237252-0.938015-10.552672-1.250687-15.633588l-0.469007-7.816794 15.633587-0.703511c0 5.080916 0.547176 10.24 0.938016 15.633587l0.703511 7.816794z m25.717252 116.470229L229.047343 636.443359c1.719695 4.846412 3.517557 9.692824 5.31542 14.461068l2.814046 7.113283-14.461069 5.940763c-2.65771-7.347786-5.471756-14.77374-8.129466-22.35603z m-18.760305-69.100458c-1.016183-5.237252-1.954198-10.474504-2.814046-15.633588l-1.250687-7.816794 15.633588-2.26687c0.781679 5.080916 1.563359 10.161832 2.501374 15.16458l1.407023 7.816794z m7.816794 32.98687l-1.250687-4.768244-1.250687-4.768245 15.16458-3.752061c0.781679 3.04855 1.563359 6.175267 2.423206 9.223817l1.797863 6.566107 1.87603 6.487939-15.008244 4.455572c-1.797863-4.455573-2.735878-9.223817-3.908397-13.444885z" fill="#EA2F2F" p-id="13770"></path></svg>